<svg xmlns="http://www.w3.org/2000/svg" viewBox="0 0 332 332" role="img" aria-label="Prun">
  <rect width="332" height="332" rx="76" fill="#0f3b31" />
  <path fill="#84f19a" d="m100 193-4-.5c-21-17.2-37 3.5-37 3.5s16.6 18.8 37 2.1c0 0 10 2.7 16.9 13.7l1.4-9.2-15.2-25.9s12.3-48.5-39.1-54.5c0 0-12 44.6 32.2 57.9" />
  <path fill="#fff" d="m113 201 .1 57s1.6 17.8 21.4 19.6c19.8 1.8 23.5-19.5 23.5-19.5l.2-23Zm.1-12.2L113 75.7s1.6-11.8 13.7-12c12.1-.2 75 .2 75 .2s58.5 3 64.1 69.2c0 0 5 71.5-65 78.3l-17.9.4s-15.5.8-22.8 16.1Z" />
  <path fill="#0a352d" d="M152.6 189s9.3-13.5 29.1-14.8l16.4-.3s29.9-2.3 30.7-36.1c0 0 1-30.7-30-35.5h-38.7s-5.9.5-7.5 6.8Z" />
</svg>
