<?xml version="1.0" encoding="UTF-8" standalone="no"?>
<!-- Created with Inkscape (http://www.inkscape.org/) -->

<svg
   width="331.43384mm"
   height="331.48294mm"
   viewBox="0 0 331.43384 331.48294"
   version="1.1"
   id="svg1"
   xml:space="preserve"
   xmlns="http://www.w3.org/2000/svg"
   xmlns:svg="http://www.w3.org/2000/svg"><defs
     id="defs1" /><g
     id="layer3"
     transform="translate(45.611649,17.30097)"><path
       style="display:inline;fill:#0f3b31;fill-opacity:1;stroke-width:0.264583"
       d="m -45.61165,55.834951 c 0,-1.310679 0.786408,-66.582524 74.184464,-73.135922 l 181.252546,0.06267 c 0,0 68.76785,-1.482865 75.99681,72.845728 V 240.5948 c 0,0 -0.74143,69.13857 -74.14323,73.58716 H 26.506207 c 0,0 -68.211777,-1.29751 -72.104297,-73.77252 z"
       id="path5" /><path
       style="display:inline;fill:#84f19a;fill-opacity:1;stroke-width:0.264583"
       d="m 54.680636,175.53411 -3.7935,-0.46008 c -21.036408,-17.1699 -37.101128,3.54166 -37.101128,3.54166 0,0 16.659059,18.74433 37.094787,2.10844 0,0 9.917873,2.66215 16.831708,13.60632 l 1.449234,-9.18089 -15.260038,-25.83645 c 0,0 12.34133,-48.42786 -39.100197,-54.43882 0,0 -11.9724624,44.56272 32.235442,57.81582"
       id="path1" /><path
       style="display:inline;fill:#fdfdfd;fill-opacity:1;stroke-width:0.264583"
       d="m 67.412419,183.94473 0.02204,56.95818 c 0,0 1.63835,17.75971 21.429612,19.52913 19.791259,1.76941 23.461169,-19.4636 23.461169,-19.4636 l 0.26213,-23.00242 z"
       id="path2" /><path
       style="display:inline;fill:#fdfdfd;fill-opacity:1;stroke-width:0.264583"
       d="M 67.499999,171.69903 67.434464,58.718447 c 0,0 1.638351,-11.796117 13.762138,-11.992719 12.123785,-0.196601 74.970868,0.131067 74.970868,0.131067 0,0 58.52185,3.080096 64.15777,69.138345 0,0 4.98059,71.43204 -65.00971,78.24758 l -17.89077,0.3932 c 0,0 -15.53156,0.78641 -22.87136,16.12136 z"
       id="path3" /><path
       style="fill:#0a352d;fill-opacity:1;stroke-width:0.264583"
       d="m 106.95146,171.89563 c 0,0 9.30582,-13.5 29.09708,-14.81068 l 16.3835,-0.32767 c 0,0 29.88349,-2.22815 30.6699,-36.04369 0,0 1.04855,-30.669901 -30.01456,-35.519415 h -38.66505 c 0,0 -5.89806,0.524272 -7.47087,6.815534 z"
       id="path4" /></g></svg>
